<svg height="488pt" viewBox="0 0 488 488" width="488pt" xmlns="http://www.w3.org/2000/svg"><g fill="#263238"><path d="m100 24h-32c-2.207031 0-4-1.792969-4-4s1.792969-4 4-4h32c2.207031 0 4 1.792969 4 4s-1.792969 4-4 4zm0 0"/><path d="m84 40c-2.207031 0-4-1.792969-4-4v-32c0-2.207031 1.792969-4 4-4s4 1.792969 4 4v32c0 2.207031-1.792969 4-4 4zm0 0"/><path d="m60 60h-32c-2.207031 0-4-1.792969-4-4s1.792969-4 4-4h32c2.207031 0 4 1.792969 4 4s-1.792969 4-4 4zm0 0"/><path d="m44 76c-2.207031 0-4-1.792969-4-4v-32c0-2.207031 1.792969-4 4-4s4 1.792969 4 4v32c0 2.207031-1.792969 4-4 4zm0 0"/><path d="m20 244h-16c-2.207031 0-4-1.792969-4-4s1.792969-4 4-4h16c2.207031 0 4 1.792969 4 4s-1.792969 4-4 4zm0 0"/><path d="m108 244h-72c-2.207031 0-4-1.792969-4-4s1.792969-4 4-4h72c2.207031 0 4 1.792969 4 4s-1.792969 4-4 4zm0 0"/><path d="m484 244h-16c-2.207031 0-4-1.792969-4-4s1.792969-4 4-4h16c2.207031 0 4 1.792969 4 4s-1.792969 4-4 4zm0 0"/><path d="m452 244h-72c-2.207031 0-4-1.792969-4-4s1.792969-4 4-4h72c2.207031 0 4 1.792969 4 4s-1.792969 4-4 4zm0 0"/><path d="m371.574219 488h-6.855469c-16.773438 0-31.855469-9.320312-39.351562-24.320312l-19.839844-39.679688h-123.054688l-19.839844 39.679688c-7.503906 15-22.585937 24.320312-39.351562 24.320312h-6.847656c-13.167969 0-25.539063-5.824219-33.921875-15.976562-8.390625-10.160157-11.777344-23.398438-9.289063-36.335938l18.378906-95.550781c7.597657-39.480469 42.285157-68.136719 82.496094-68.136719h139.824219c40.199219 0 74.894531 28.65625 82.492187 68.136719l18.378907 95.550781c2.488281 12.9375-.898438 26.175781-9.289063 36.335938-8.390625 10.152343-20.761718 15.976562-33.929687 15.976562zm-191.574219-72h128c1.511719 0 2.894531.855469 3.574219 2.207031l20.945312 41.890625c6.136719 12.269532 18.472657 19.894532 32.199219 19.894532h6.847656c10.777344 0 20.890625-4.769532 27.753906-13.070313 6.863282-8.3125 9.632813-19.152344 7.601563-29.730469l-18.378906-95.550781c-6.863281-35.710937-38.246094-61.640625-74.621094-61.640625h-139.84375c-36.375 0-67.757813 25.929688-74.628906 61.648438l-18.378907 95.550781c-2.03125 10.578125.738282 21.417969 7.601563 29.730469 6.863281 8.300781 16.976563 13.070312 27.753906 13.070312h6.847657c13.726562 0 26.0625-7.625 32.199218-19.894531l20.941406-41.890625c.691407-1.359375 2.074219-2.214844 3.585938-2.214844zm0 0"/></g><path d="m360 348c0 19.882812-16.117188 36-36 36s-36-16.117188-36-36 16.117188-36 36-36 36 16.117188 36 36zm0 0" fill="#ffd740"/><path d="m324 388c-22.054688 0-40-17.945312-40-40s17.945312-40 40-40 40 17.945312 40 40-17.945312 40-40 40zm0-72c-17.648438 0-32 14.351562-32 32s14.351562 32 32 32 32-14.351562 32-32-14.351562-32-32-32zm0 0" fill="#263238"/><path d="m192 335.664062h-16v-16c0-4.417968-3.585938-8-8-8h-8c-4.414062 0-8 3.582032-8 8v16h-16c-4.414062 0-8 3.582032-8 8v8c0 4.414063 3.585938 8 8 8h16v16c0 4.414063 3.585938 8 8 8h8c4.414062 0 8-3.585937 8-8v-16h16c4.414062 0 8-3.585937 8-8v-8c0-4.417968-3.585938-8-8-8zm0 0" fill="#ffd740"/><path d="m168 387.664062h-8c-6.617188 0-12-5.382812-12-12v-12h-12c-6.617188 0-12-5.382812-12-12v-8c0-6.617187 5.382812-12 12-12h12v-12c0-6.617187 5.382812-12 12-12h8c6.617188 0 12 5.382813 12 12v12h12c6.617188 0 12 5.382813 12 12v8c0 6.617188-5.382812 12-12 12h-12v12c0 6.617188-5.382812 12-12 12zm-32-48c-2.207031 0-4 1.800782-4 4v8c0 2.199219 1.792969 4 4 4h16c2.207031 0 4 1.792969 4 4v16c0 2.199219 1.792969 4 4 4h8c2.207031 0 4-1.800781 4-4v-16c0-2.207031 1.792969-4 4-4h16c2.207031 0 4-1.800781 4-4v-8c0-2.199218-1.792969-4-4-4h-16c-2.207031 0-4-1.792968-4-4v-16c0-2.199218-1.792969-4-4-4h-8c-2.207031 0-4 1.800782-4 4v16c0 2.207032-1.792969 4-4 4zm0 0" fill="#263238"/><path d="m324 336c-2.207031 0-4-1.792969-4-4v-20c0-2.207031 1.792969-4 4-4s4 1.792969 4 4v20c0 2.207031-1.792969 4-4 4zm0 0" fill="#263238"/><path d="m324 388c-2.207031 0-4-1.792969-4-4v-20c0-2.207031 1.792969-4 4-4s4 1.792969 4 4v20c0 2.207031-1.792969 4-4 4zm0 0" fill="#263238"/><path d="m360 352h-20c-2.207031 0-4-1.792969-4-4s1.792969-4 4-4h20c2.207031 0 4 1.792969 4 4s-1.792969 4-4 4zm0 0" fill="#263238"/><path d="m308 352h-20c-2.207031 0-4-1.792969-4-4s1.792969-4 4-4h20c2.207031 0 4 1.792969 4 4s-1.792969 4-4 4zm0 0" fill="#263238"/><path d="m256 400h-24c-6.617188 0-12-5.382812-12-12v-8c0-6.617188 5.382812-12 12-12h24c6.617188 0 12 5.382812 12 12v8c0 6.617188-5.382812 12-12 12zm-24-24c-2.207031 0-4 1.800781-4 4v8c0 2.199219 1.792969 4 4 4h24c2.207031 0 4-1.800781 4-4v-8c0-2.199219-1.792969-4-4-4zm0 0" fill="#263238"/><path d="m192 184h-88c-11.046875 0-20-8.953125-20-20v-88c0-11.046875 8.953125-20 20-20h88c11.046875 0 20 8.953125 20 20v88c0 11.046875-8.953125 20-20 20zm0 0" fill="#4db6ac"/><path d="m192 188h-88c-13.230469 0-24-10.769531-24-24v-88c0-13.230469 10.769531-24 24-24h88c13.230469 0 24 10.769531 24 24v88c0 13.230469-10.769531 24-24 24zm-88-128c-8.824219 0-16 7.175781-16 16v88c0 8.824219 7.175781 16 16 16h88c8.824219 0 16-7.175781 16-16v-88c0-8.824219-7.175781-16-16-16zm0 0" fill="#263238"/><path d="m133.855469 152.28125c-1.023438 0-2.046875-.394531-2.832031-1.167969l-28.289063-28.28125c-1.558594-1.558593-1.558594-4.097656 0-5.65625 1.5625-1.558593 4.097656-1.558593 5.65625 0l25.457031 25.457031 53.738282-53.738281c1.558593-1.558593 4.09375-1.558593 5.652343 0 1.5625 1.5625 1.5625 4.097657 0 5.65625l-56.566406 56.5625c-.769531.773438-1.792969 1.167969-2.816406 1.167969zm0 0" fill="#263238"/><path d="m384 184h-88c-11.046875 0-20-8.953125-20-20v-88c0-11.046875 8.953125-20 20-20h88c11.046875 0 20 8.953125 20 20v88c0 11.046875-8.953125 20-20 20zm0 0" fill="#ff5252"/><path d="m384 188h-88c-13.230469 0-24-10.769531-24-24v-88c0-13.230469 10.769531-24 24-24h88c13.230469 0 24 10.769531 24 24v88c0 13.230469-10.769531 24-24 24zm-88-128c-8.824219 0-16 7.175781-16 16v88c0 8.824219 7.175781 16 16 16h88c8.824219 0 16-7.175781 16-16v-88c0-8.824219-7.175781-16-16-16zm0 0" fill="#263238"/><path d="m332 224h-176c-6.617188 0-12-5.382812-12-12v-12c0-2.207031 1.792969-4 4-4s4 1.792969 4 4v12c0 2.199219 1.792969 4 4 4h176c2.207031 0 4-1.800781 4-4v-12c0-2.207031 1.792969-4 4-4s4 1.792969 4 4v12c0 6.617188-5.382812 12-12 12zm0 0" fill="#263238"/><path d="m244 264c-2.207031 0-4-1.792969-4-4v-40c0-2.207031 1.792969-4 4-4s4 1.792969 4 4v40c0 2.207031-1.792969 4-4 4zm0 0" fill="#263238"/><path d="m372 156c-1.023438 0-2.046875-.390625-2.832031-1.167969l-64-64c-1.558594-1.558593-1.558594-4.097656 0-5.65625 1.558593-1.558593 4.097656-1.558593 5.65625 0l64 64c1.558593 1.558594 1.558593 4.097657 0 5.65625-.777344.777344-1.800781 1.167969-2.824219 1.167969zm0 0" fill="#263238"/><path d="m308 156c-1.023438 0-2.046875-.390625-2.832031-1.167969-1.558594-1.558593-1.558594-4.097656 0-5.65625l64-64c1.558593-1.558593 4.097656-1.558593 5.65625 0 1.558593 1.558594 1.558593 4.097657 0 5.65625l-64 64c-.777344.777344-1.800781 1.167969-2.824219 1.167969zm0 0" fill="#263238"/></svg>