<?xml version="1.0" encoding="iso-8859-1"?>
<!-- Generator: Adobe Illustrator 19.0.0, SVG Export Plug-In . SVG Version: 6.00 Build 0)  -->
<svg version="1.1" id="Capa_1" xmlns="http://www.w3.org/2000/svg" xmlns:xlink="http://www.w3.org/1999/xlink" x="0px" y="0px"
	 viewBox="0 0 512 512" style="enable-background:new 0 0 512 512;" xml:space="preserve">
<rect x="7.515" y="47.593" style="fill:#AAB6B6;" width="496.971" height="416.814"/>
<rect x="7.515" y="47.593" style="fill:#809292;" width="24.047" height="416.814"/>
<rect x="7.515" y="47.593" style="fill:#FFE340;" width="496.971" height="64.125"/>
<rect x="7.515" y="47.593" style="fill:#FFDA00;" width="24.047" height="64.125"/>
<circle cx="407.796" cy="80.157" r="7.515"/>
<circle cx="439.358" cy="80.157" r="7.515"/>
<circle cx="470.92" cy="80.157" r="7.515"/>
<g>
	
		<line style="fill:none;stroke:#000000;stroke-width:15;stroke-linecap:round;stroke-linejoin:round;stroke-miterlimit:10;" x1="55.609" y1="79.656" x2="143.781" y2="79.656"/>
	
		<line style="fill:none;stroke:#000000;stroke-width:15;stroke-linecap:round;stroke-linejoin:round;stroke-miterlimit:10;" x1="175.843" y1="79.656" x2="215.922" y2="79.656"/>
</g>
<path style="fill:#F3F2ED;" d="M95.687,328.141c0,0,64.125-88.172,160.313-88.172s160.313,88.172,160.313,88.172
	S352.188,416.313,256,416.313S95.687,328.141,95.687,328.141z"/>
<path style="fill:#E7E5DA;" d="M272.031,400.282c-96.188,0-160.313-88.172-160.313-88.172s4.313-5.925,12.362-14.693
	c-18.252,16.788-28.393,30.724-28.393,30.724S159.812,416.313,256,416.313c71.27,0,124.928-48.4,147.951-73.48
	C376.288,368.279,329.983,400.282,272.031,400.282z"/>
<circle style="fill:#E579FF;" cx="256" cy="328.141" r="64.125"/>
<path style="fill:#DC4DFF;" d="M280.047,376.235c-35.415,0-64.125-28.71-64.125-64.125c0-17.035,6.656-32.508,17.492-43.991
	c-24.268,9.137-41.539,32.559-41.539,60.022c0,35.415,28.71,64.125,64.125,64.125c18.38,0,34.941-7.744,46.633-20.134
	C295.606,374.777,287.999,376.235,280.047,376.235z"/>
<polygon style="fill:#FFE340;" points="239.969,296.078 239.969,360.204 288.063,328.141 "/>
<path d="M504.485,40.078H7.515C3.364,40.078,0,43.443,0,47.593v416.814c0,4.15,3.364,7.515,7.515,7.515h496.971
	c4.151,0,7.515-3.365,7.515-7.515V47.593C512,43.443,508.636,40.078,504.485,40.078z M15.029,456.892V119.233h317.119
	c4.151,0,7.515-3.365,7.515-7.515c0-4.15-3.364-7.515-7.515-7.515H15.029V55.108h481.941v49.096H368.219
	c-4.151,0-7.515,3.365-7.515,7.515c0,4.15,3.364,7.515,7.515,7.515h128.751v337.659H15.029z"/>
<circle cx="407.796" cy="80.157" r="7.515"/>
<circle cx="439.358" cy="80.157" r="7.515"/>
<circle cx="470.92" cy="80.157" r="7.515"/>
<path d="M143.781,72.141H55.609c-4.151,0-7.515,3.365-7.515,7.515c0,4.15,3.364,7.515,7.515,7.515h88.172
	c4.151,0,7.515-3.365,7.515-7.515C151.296,75.505,147.932,72.141,143.781,72.141z"/>
<path d="M215.922,72.141h-40.078c-4.151,0-7.515,3.365-7.515,7.515c0,4.15,3.364,7.515,7.515,7.515h40.078
	c4.151,0,7.515-3.365,7.515-7.515C223.436,75.505,220.073,72.141,215.922,72.141z"/>
<path d="M71.64,184.36H55.108v-32.564c0-4.15-3.364-7.515-7.515-7.515s-7.515,3.365-7.515,7.515v40.078
	c0,4.15,3.364,7.515,7.515,7.515H71.64c4.151,0,7.515-3.365,7.515-7.515S75.791,184.36,71.64,184.36z"/>
<path d="M95.687,199.389c4.151,0,7.515-3.365,7.515-7.515v-40.078c0-4.15-3.364-7.515-7.515-7.515c-4.151,0-7.515,3.365-7.515,7.515
	v40.078C88.172,196.025,91.536,199.389,95.687,199.389z"/>
<path d="M128.788,194.666c1.142,2.853,3.905,4.723,6.978,4.723s5.835-1.871,6.978-4.723l16.031-40.078
	c1.541-3.854-0.334-8.227-4.187-9.768c-3.85-1.543-8.227,0.332-9.768,4.186l-9.054,22.635l-9.054-22.635
	c-1.541-3.854-5.917-5.728-9.768-4.186c-3.854,1.541-5.728,5.915-4.187,9.768L128.788,194.666z"/>
<path d="M175.843,199.389h24.047c4.151,0,7.515-3.365,7.515-7.515s-3.364-7.515-7.515-7.515h-16.532v-1.002h8.517
	c4.151,0,7.515-3.365,7.515-7.515s-3.364-7.515-7.515-7.515h-8.517v-9.018h16.532c4.151,0,7.515-3.365,7.515-7.515
	s-3.364-7.515-7.515-7.515h-24.047c-4.151,0-7.515,3.365-7.515,7.515v40.078C168.329,196.025,171.692,199.389,175.843,199.389z"/>
<path d="M376.87,278.146c-38.044-29.892-79.841-45.692-120.87-45.692s-82.826,15.8-120.87,45.692
	c-28.547,22.43-44.841,44.64-45.521,45.575c-1.917,2.635-1.917,6.204,0,8.839c0.68,0.935,16.973,23.145,45.521,45.575
	c38.044,29.892,79.841,45.692,120.87,45.692s82.826-15.8,120.87-45.692c28.547-22.43,44.841-44.64,45.521-45.575
	c1.917-2.635,1.917-6.204,0-8.839C421.711,322.786,405.417,300.576,376.87,278.146z M256,408.798
	c-47.381,0-86.648-22.957-111.245-42.214c-19.701-15.425-33.447-31.033-39.509-38.439c14.329-17.463,71.665-80.662,150.754-80.662
	c47.381,0,86.648,22.957,111.245,42.214c19.703,15.426,33.449,31.036,39.509,38.439C392.425,345.6,335.089,408.798,256,408.798z"/>
<path d="M256,256.501c-39.502,0-71.64,32.138-71.64,71.64s32.138,71.64,71.64,71.64s71.64-32.138,71.64-71.64
	S295.502,256.501,256,256.501z M256,384.751c-31.215,0-56.611-25.396-56.611-56.611S224.785,271.53,256,271.53
	s56.611,25.396,56.611,56.611S287.215,384.751,256,384.751z"/>
<path d="M292.231,321.889l-48.094-32.063c-4.905-3.27-11.683,0.371-11.683,6.252v64.125c0,5.874,6.773,9.528,11.683,6.252
	l48.094-32.063C296.616,331.471,296.616,324.81,292.231,321.889z M247.483,346.162v-36.043l27.032,18.021L247.483,346.162z"/>
<g>
</g>
<g>
</g>
<g>
</g>
<g>
</g>
<g>
</g>
<g>
</g>
<g>
</g>
<g>
</g>
<g>
</g>
<g>
</g>
<g>
</g>
<g>
</g>
<g>
</g>
<g>
</g>
<g>
</g>
</svg>
