<svg height="511pt" viewBox="0 -21 511.994 511" width="511pt" xmlns="http://www.w3.org/2000/svg"><g fill="#263238"><path d="m76 24.496094h-32c-2.207031 0-4-1.792969-4-4 0-2.207032 1.792969-4 4-4h32c2.207031 0 4 1.792968 4 4 0 2.207031-1.792969 4-4 4zm0 0"/><path d="m60 40.496094c-2.207031 0-4-1.792969-4-4v-32c0-2.207032 1.792969-4 4-4s4 1.792968 4 4v32c0 2.207031-1.792969 4-4 4zm0 0"/><path d="m36 64.496094h-32c-2.207031 0-4-1.792969-4-4 0-2.207032 1.792969-4 4-4h32c2.207031 0 4 1.792968 4 4 0 2.207031-1.792969 4-4 4zm0 0"/><path d="m20 80.496094c-2.207031 0-4-1.792969-4-4v-32c0-2.207032 1.792969-4 4-4s4 1.792968 4 4v32c0 2.207031-1.792969 4-4 4zm0 0"/><path d="m468 128.496094h-408c-2.207031 0-4-1.792969-4-4v-44c0-13.230469 10.769531-24 24-24h368c13.230469 0 24 10.769531 24 24v44c0 2.207031-1.792969 4-4 4zm-404-8h400v-40c0-8.824219-7.175781-16-16-16h-368c-8.824219 0-16 7.175781-16 16zm0 0"/><path d="m88 108.496094c-8.824219 0-16-7.175782-16-16 0-8.824219 7.175781-16 16-16s16 7.175781 16 16c0 8.824218-7.175781 16-16 16zm0-24c-4.40625 0-8 3.585937-8 8 0 4.417968 3.59375 8 8 8s8-3.582032 8-8c0-4.414063-3.59375-8-8-8zm0 0"/><path d="m128 108.496094c-8.824219 0-16-7.175782-16-16 0-8.824219 7.175781-16 16-16s16 7.175781 16 16c0 8.824218-7.175781 16-16 16zm0-24c-4.40625 0-8 3.585937-8 8 0 4.417968 3.59375 8 8 8s8-3.582032 8-8c0-4.414063-3.59375-8-8-8zm0 0"/><path d="m108 448.496094h-16c-2.207031 0-4-1.792969-4-4 0-2.207032 1.792969-4 4-4h16c2.207031 0 4 1.792968 4 4 0 2.207031-1.792969 4-4 4zm0 0"/><path d="m284 448.496094h-160c-2.207031 0-4-1.792969-4-4 0-2.207032 1.792969-4 4-4h160c2.207031 0 4 1.792968 4 4 0 2.207031-1.792969 4-4 4zm0 0"/><path d="m436 32.496094h-16c-2.207031 0-4-1.792969-4-4 0-2.207032 1.792969-4 4-4h16c2.207031 0 4 1.792968 4 4 0 2.207031-1.792969 4-4 4zm0 0"/><path d="m404 32.496094h-160c-2.207031 0-4-1.792969-4-4 0-2.207032 1.792969-4 4-4h160c2.207031 0 4 1.792968 4 4 0 2.207031-1.792969 4-4 4zm0 0"/></g><path d="m417.488281 373.984375v67.886719l19.800781-19.796875 42.421876 42.421875 28.289062-28.285156-42.425781-42.425782 19.800781-19.800781zm0 0" fill="#ffd740"/><path d="m479.71875 468.496094c-1.023438 0-2.046875-.390625-2.832031-1.167969l-39.597657-39.597656-16.96875 16.972656c-1.152343 1.152344-2.871093 1.488281-4.359374.867187-1.496094-.617187-2.472657-2.082031-2.472657-3.699218v-67.878906c0-2.207032 1.792969-4 4-4h67.878907c1.617187 0 3.082031.976562 3.695312 2.472656.617188 1.496094.273438 3.214844-.863281 4.359375l-16.976563 16.96875 39.601563 39.601562c1.558593 1.558594 1.558593 4.09375 0 5.65625l-28.28125 28.277344c-.773438.777344-1.800781 1.167969-2.824219 1.167969zm-42.429688-50.429688c1.0625 0 2.078126.421875 2.832032 1.167969l39.597656 39.597656 22.625-22.621093-39.601562-39.601563c-.75-.753906-1.167969-1.769531-1.167969-2.832031s.425781-2.082032 1.167969-2.832032l12.976562-12.96875h-54.222656v54.222657l12.96875-12.972657c.742187-.738281 1.757812-1.160156 2.824218-1.160156zm0 0" fill="#263238"/><path d="m409.496094 416.496094h-329.496094c-13.230469 0-24-10.765625-24-24v-268c0-2.207032 1.792969-4 4-4h408c2.207031 0 4 1.792968 4 4v233.496094c0 2.207031-1.792969 4-4 4s-4-1.792969-4-4v-229.496094h-400v264c0 8.824218 7.175781 16 16 16h329.496094c2.207031 0 4 1.792968 4 4 0 2.207031-1.792969 4-4 4zm0 0" fill="#263238"/><path d="m355.617188 280.496094h-24.296876c-8.375 0-16.257812-4.464844-20.578124-11.648438l-12.34375-20.582031c-2.871094-4.792969-8.132813-7.769531-13.71875-7.769531h-41.351563c-5.585937 0-10.839844 2.976562-13.71875 7.769531l-12.351563 20.574219c-4.3125 7.183594-12.195312 11.65625-20.578124 11.65625h-24.296876c-7.910156 0-15.054687-3.710938-19.613281-10.167969-4.554687-6.472656-5.648437-14.457031-2.984375-21.894531l20.976563-58.730469c6.230469-17.46875 22.886719-29.199219 41.429687-29.199219h103.625c18.542969 0 35.199219 11.738282 41.441406 29.199219l20.964844 58.730469c2.664063 7.449218 1.578125 15.421875-2.976562 21.886718-4.550782 6.464844-11.71875 10.175782-19.628906 10.175782zm-112.289063-48h41.351563c8.375 0 16.257812 4.464844 20.578124 11.648437l12.34375 20.585938c2.871094 4.789062 8.132813 7.765625 13.71875 7.765625h24.296876c5.269531 0 10.046874-2.480469 13.085937-6.792969 3.03125-4.300781 3.761719-9.621094 1.984375-14.589844l-20.96875-58.726562c-5.109375-14.289063-18.734375-23.890625-33.902344-23.890625h-103.632812c-15.175782 0-28.800782 9.601562-33.902344 23.890625l-20.976562 58.726562c-1.777344 4.96875-1.046876 10.289063 1.992187 14.601563 3.039063 4.308594 7.808594 6.78125 13.078125 6.78125h24.296875c5.585937 0 10.839844-2.976563 13.71875-7.765625l12.351563-20.578125c4.3125-7.183594 12.203124-11.65625 20.585937-11.65625zm-68.808594-41.457032h.082031zm0 0" fill="#263238"/><path d="m232 204.496094c0 11.046875-8.953125 20-20 20s-20-8.953125-20-20c0-11.042969 8.953125-20 20-20s20 8.957031 20 20zm0 0" fill="#40c4ff"/><path d="m212 228.496094c-13.230469 0-24-10.765625-24-24 0-13.230469 10.769531-24 24-24s24 10.769531 24 24c0 13.234375-10.769531 24-24 24zm0-40c-8.824219 0-16 7.175781-16 16 0 8.824218 7.175781 16 16 16s16-7.175782 16-16c0-8.824219-7.175781-16-16-16zm0 0" fill="#263238"/><path d="m336 204.496094c0 11.046875-8.953125 20-20 20s-20-8.953125-20-20c0-11.042969 8.953125-20 20-20s20 8.957031 20 20zm0 0" fill="#40c4ff"/><path d="m316 228.496094c-13.230469 0-24-10.765625-24-24 0-13.230469 10.769531-24 24-24s24 10.769531 24 24c0 13.234375-10.769531 24-24 24zm0-40c-8.824219 0-16 7.175781-16 16 0 8.824218 7.175781 16 16 16s16-7.175782 16-16c0-8.824219-7.175781-16-16-16zm0 0" fill="#263238"/><path d="m276 208.496094h-24c-2.207031 0-4-1.792969-4-4 0-2.207032 1.792969-4 4-4h24c2.207031 0 4 1.792968 4 4 0 2.207031-1.792969 4-4 4zm0 0" fill="#263238"/><path d="m340 372.496094h-152c-11.046875 0-20-8.949219-20-20v-8c0-11.046875 8.953125-20 20-20h152c11.046875 0 20 8.953125 20 20v8c0 11.050781-8.953125 20-20 20zm0 0" fill="#ff5252"/><path d="m340 376.496094h-152c-13.230469 0-24-10.765625-24-24v-8c0-13.230469 10.769531-24 24-24h152c13.230469 0 24 10.769531 24 24v8c0 13.234375-10.769531 24-24 24zm-152-48c-8.824219 0-16 7.175781-16 16v8c0 8.824218 7.175781 16 16 16h152c8.824219 0 16-7.175782 16-16v-8c0-8.824219-7.175781-16-16-16zm0 0" fill="#263238"/></svg>