<?xml version="1.0" encoding="iso-8859-1"?>
<!-- Generator: Adobe Illustrator 19.0.0, SVG Export Plug-In . SVG Version: 6.00 Build 0)  -->
<svg version="1.1" id="Capa_1" xmlns="http://www.w3.org/2000/svg" xmlns:xlink="http://www.w3.org/1999/xlink" x="0px" y="0px"
	 viewBox="0 0 512.002 512.002" style="enable-background:new 0 0 512.002 512.002;" xml:space="preserve">
<polygon style="fill:#632B21;" points="162.501,309.5 62.501,309.5 82.501,459.5 142.501,459.5 "/>
<path style="fill:#0045CC;" d="M112.501,262.5v75c24.853,0,45-20.147,45-45L112.501,262.5z"/>
<path style="fill:#1CB9FD;" d="M127.501,292.5l-15-30l-45,30c0,24.853,20.147,45,45,45C120.785,337.5,127.501,317.353,127.501,292.5
	z"/>
<path style="fill:#629D3C;" d="M137.501,172.5h-30l20,120h30v-100C157.501,181.454,148.546,172.5,137.501,172.5z"/>
<path style="fill:#8DC051;" d="M107.501,172.5h-20c-11.046,0-20,8.954-20,20v100h60v-100
	C127.501,181.454,118.546,172.5,107.501,172.5z"/>
<path style="fill:#FDC0AB;" d="M112.501,52.5v101l45-46v-10C157.501,72.647,137.354,52.5,112.501,52.5z"/>
<path style="fill:#FDDFD3;" d="M112.501,52.5c-24.853,0-45,20.147-45,45v10l60,46v-56C127.501,72.647,120.785,52.5,112.501,52.5z"/>
<path style="fill:#E34339;" d="M131.209,107.5c-1.053-1.573-2.303-3.002-3.709-4.261l-15,69.261c24.853,0,45-20.147,45-45v-20
	H131.209z"/>
<path style="fill:#F06449;" d="M127.501,127.5v-24.261c-3.981-3.566-9.235-5.739-15-5.739c-7.801,0-14.672,3.971-18.709,10H67.501
	v20c0,24.853,20.147,45,45,45C120.785,172.5,127.501,152.353,127.501,127.5z"/>
<path style="fill:#84473C;" d="M97.501,172.5h-40c-10.295,0-18.766,7.781-19.87,17.782L7.501,459.5h90V172.5z"/>
<path style="fill:#743225;" d="M187.371,190.282c-1.105-10.001-9.575-17.782-19.87-17.782h-30l49.544,287h30L187.371,190.282z"/>
<path style="fill:#84473C;" d="M157.371,190.282c-1.105-10.001-9.575-17.782-19.87-17.782h-10v287h59.544L157.371,190.282z"/>
<polygon style="fill:#8FDBFD;" points="230.306,7.5 245.306,22.5 245.306,172.5 215.306,172.5 215.306,22.5 "/>
<polygon style="fill:#A8A8A8;" points="424.273,172.5 404.273,277.386 474.501,292.5 454.501,172.5 "/>
<rect x="404.27" y="262.5" style="fill:#E34339;" width="70.46" height="90"/>
<path style="fill:#A96A5B;" d="M394.501,192.5v175h29.772v-195h-9.772C403.455,172.5,394.501,181.454,394.501,192.5z"/>
<g>
	<path style="fill:#8D584E;" d="M484.501,262.5v-70c0-11.046-8.954-20-20-20h-9.772v195h44.772v-65.335
		C499.501,286.954,493.83,273.075,484.501,262.5z"/>
	<path style="fill:#8D584E;" d="M439.501,52.5v90c24.853,0,45-20.147,45-45S464.353,52.5,439.501,52.5z"/>
</g>
<path style="fill:#A96A5B;" d="M454.501,97.5c0-24.853-6.716-45-15-45c-24.853,0-45,20.147-45,45s20.147,45,45,45
	C447.785,142.5,454.501,122.353,454.501,97.5z"/>
<circle style="fill:#632B21;" cx="439.5" cy="30" r="22.5"/>
<polygon style="fill:#8FDBFD;" points="321.468,7.5 306.468,22.5 306.468,172.5 336.468,172.5 336.468,22.5 "/>
<path d="M260.305,165h-37.5V25.606l7.5-7.5l7.5,7.5V142.5c0,4.143,3.357,7.5,7.5,7.5s7.5-3.357,7.5-7.5v-120
	c0-1.989-0.79-3.896-2.196-5.304l-15-15c-2.93-2.928-7.678-2.928-10.607,0l-15,15c-1.406,1.407-2.196,3.314-2.196,5.304V165h-58.613
	c9.745-9.537,15.808-22.821,15.808-37.5v-16.893l17.804-17.804c2.929-2.93,2.929-7.678,0-10.607c-2.93-2.928-7.678-2.928-10.607,0
	l-7.748,7.748C160.774,64.564,138.883,45,112.501,45S64.227,64.564,60.552,89.944l-7.748-7.748c-2.93-2.928-7.678-2.928-10.607,0
	c-2.929,2.93-2.929,7.678,0,10.607l17.804,17.804V127.5c0,14.679,6.063,27.963,15.808,37.5H57.501
	c-14.038,0-25.785,10.515-27.323,24.448L0.048,458.666c-0.237,2.121,0.439,4.243,1.862,5.834s3.456,2.5,5.591,2.5h67.272v27.5
	c0,3.229,2.065,6.095,5.128,7.115l30,10c0.787,0.262,1.587,0.387,2.373,0.387c3.14,0,6.066-1.987,7.114-5.13
	c1.31-3.93-0.813-8.178-4.743-9.487l-24.872-8.29V467h45v27.5c0,3.229,2.065,6.095,5.128,7.115l30,10
	c0.787,0.262,1.587,0.387,2.373,0.387c3.14,0,6.066-1.987,7.114-5.13c1.31-3.93-0.813-8.178-4.743-9.487l-24.872-8.29V467h67.271
	c2.132,0,4.163-0.907,5.586-2.496c1.423-1.588,2.103-3.706,1.869-5.825L199.42,231.147c8.278-3.095,16.132-7.278,23.385-12.478
	V232.5c0,4.143,3.357,7.5,7.5,7.5s7.5-3.357,7.5-7.5V180h22.5c4.143,0,7.5-3.357,7.5-7.5S264.448,165,260.305,165z M179.916,191.104
	l3.226,29.264c-6.279,1.427-12.756,2.185-19.353,2.185c-9.961,0-19.661-1.68-28.788-4.889V180h32.5
	C173.88,180,179.217,184.774,179.916,191.104z M120.001,329.232c-4.94,1.002-10.06,1.002-15,0V300h15V329.232z M105.001,344.453
	c2.476,0.357,4.979,0.547,7.5,0.547s5.024-0.19,7.5-0.547V452h-15V344.453z M120.001,285h-15v-66.166
	c4.76,3.393,9.776,6.349,15,8.848V285z M105.001,199.505V180h15v30.685C114.662,207.544,109.637,203.804,105.001,199.505z
	 M112.501,60c20.678,0,37.5,16.822,37.5,37.5v2.5h-15.139c-5.653-6.324-13.747-10-22.361-10s-16.708,3.676-22.361,10H75.001v-2.5
	C75.001,76.822,91.823,60,112.501,60z M75.001,127.5V115h18.791c2.502,0,4.84-1.248,6.232-3.327
	c2.797-4.179,7.462-6.673,12.477-6.673s9.68,2.494,12.477,6.673c1.393,2.079,3.73,3.327,6.232,3.327h18.791v12.5
	c0,20.678-16.822,37.5-37.5,37.5S75.001,148.178,75.001,127.5z M45.086,191.105C45.785,184.774,51.122,180,57.501,180h32.5v20.698
	c-0.292,1.184-0.292,2.421,0,3.605V452H15.886L45.086,191.105z M208.673,452h-73.672V233.429c9.229,2.713,18.9,4.123,28.788,4.123
	c7.145,0,14.174-0.74,21.008-2.169L208.673,452z M222.805,199.289c-7.457,6.964-15.933,12.471-25.092,16.372l-2.888-26.202
	c-0.375-3.391-1.356-6.576-2.824-9.459h30.804V199.289z"/>
<path d="M509.804,82.196c-2.93-2.928-7.678-2.928-10.607,0l-7.748,7.748c-2.563-17.699-13.985-32.563-29.614-39.942
	c4.762-5.312,7.665-12.323,7.665-20.001c0-16.542-13.458-30-30-30s-30,13.458-30,30c0,7.678,2.903,14.689,7.665,20.001
	c-15.628,7.379-27.05,22.243-29.614,39.942l-7.748-7.748c-2.93-2.928-7.678-2.928-10.607,0c-2.929,2.93-2.929,7.678,0,10.607l20,20
	c0.037,0.037,0.077,0.068,0.115,0.104c6.6,21.453,26.601,37.093,50.19,37.093s43.59-15.64,50.189-37.093
	c0.038-0.036,0.078-0.067,0.115-0.104l20-20C512.733,89.874,512.733,85.126,509.804,82.196z M424.501,30c0-8.271,6.729-15,15-15
	s15,6.729,15,15s-6.729,15-15,15S424.501,38.271,424.501,30z M439.501,135c-20.678,0-37.5-16.822-37.5-37.5s16.822-37.5,37.5-37.5
	s37.5,16.822,37.5,37.5S460.178,135,439.501,135z"/>
<path d="M506.001,262.5c0-4.143-3.357-7.5-7.5-7.5h-6.5v-62.5c0-15.163-12.337-27.5-27.5-27.5h-50c-15.163,0-27.5,12.337-27.5,27.5
	v30.028c-21.741-0.241-42.195-8.449-58.033-23.24V180h22.5c4.143,0,7.5-3.357,7.5-7.5s-3.357-7.5-7.5-7.5h-37.5V25.606l7.5-7.5
	l7.5,7.5V142.5c0,4.143,3.357,7.5,7.5,7.5s7.5-3.357,7.5-7.5v-120c0-1.989-0.79-3.896-2.196-5.304l-15-15
	c-2.93-2.928-7.678-2.928-10.607,0l-15,15c-1.406,1.407-2.196,3.314-2.196,5.304V165h-7.5c-4.143,0-7.5,3.357-7.5,7.5
	s3.357,7.5,7.5,7.5h22.5v42.5c0,4.143,3.357,7.5,7.5,7.5s7.5-3.357,7.5-7.5v-3.831c16.844,12.076,36.927,18.672,58.033,18.871
	v17.611c-3.424,0.695-6,3.72-6,7.349s2.576,6.655,6,7.349V367.5c0,4.143,3.357,7.5,7.5,7.5h7.5v114.095l-24.872,8.29
	c-3.93,1.31-6.053,5.558-4.743,9.487c1.048,3.143,3.974,5.13,7.114,5.13c0.786,0,1.586-0.125,2.373-0.387l30-10
	c3.063-1.021,5.128-3.887,5.128-7.115V375h7.271c4.143,0,7.5-3.357,7.5-7.5V360h15.457v7.5c0,4.143,3.357,7.5,7.5,7.5h7.271v114.095
	l-24.872,8.29c-3.93,1.31-6.053,5.558-4.743,9.487c1.048,3.143,3.974,5.13,7.114,5.13c0.786,0,1.586-0.125,2.373-0.387l30-10
	c3.063-1.021,5.128-3.887,5.128-7.115V375h22.5c4.143,0,7.5-3.357,7.5-7.5v-65.335c0-11.329-2.856-22.371-8.186-32.181
	C502.811,269.818,506.001,266.536,506.001,262.5z M464.501,180c6.893,0,12.5,5.607,12.5,12.5V255H462.23v-75H464.501z M416.772,360
	h-14.771v-90h14.771V360z M402.001,255v-18.409c5.023-0.689,9.957-1.747,14.771-3.162V255H402.001z M431.772,227.683
	c5.392-2.58,10.562-5.649,15.457-9.179V255h-15.457V227.683z M447.229,180v19.071c-4.763,4.48-9.941,8.369-15.457,11.615V180
	H447.229z M414.501,180h2.271v37.663c-4.78,1.681-9.721,2.928-14.771,3.746V192.5C402.001,185.607,407.608,180,414.501,180z
	 M431.772,345v-75h15.457v75H431.772z M492.001,360H462.23v-90h18.733c7.133,9.183,11.039,20.478,11.039,32.165V360H492.001z"/>
<g>
</g>
<g>
</g>
<g>
</g>
<g>
</g>
<g>
</g>
<g>
</g>
<g>
</g>
<g>
</g>
<g>
</g>
<g>
</g>
<g>
</g>
<g>
</g>
<g>
</g>
<g>
</g>
<g>
</g>
</svg>
